<?xml version="1.0" standalone="no"?>
<!DOCTYPE svg PUBLIC "-//W3C//DTD SVG 20010904//EN"
 "http://www.w3.org/TR/2001/REC-SVG-20010904/DTD/svg10.dtd">
<svg version="1.0" xmlns="http://www.w3.org/2000/svg"
 width="320.000000pt" height="320.000000pt" viewBox="0 0 320.000000 320.000000"
 preserveAspectRatio="xMidYMid meet">
<metadata>
Created by potrace 1.14, written by Peter Selinger 2001-2017
</metadata>
<g transform="translate(0.000000,320.000000) scale(0.100000,-0.100000)"
fill="#000000" stroke="none">
<path d="M0 1600 l0 -1600 1600 0 1600 0 0 1600 0 1600 -1600 0 -1600 0 0
-1600z m820 1415 c81 -22 180 -73 180 -94 0 -17 -55 -111 -65 -111 -3 0 -27
11 -53 24 -122 62 -280 74 -368 28 -92 -47 -132 -141 -104 -244 22 -77 81
-119 278 -197 203 -81 270 -129 319 -230 25 -49 28 -67 28 -151 0 -83 -4 -103
-28 -156 -47 -102 -144 -180 -267 -215 -65 -18 -232 -15 -310 5 -78 21 -187
73 -194 93 -7 17 39 112 58 119 8 3 41 -9 75 -25 203 -103 420 -71 487 72 48
103 22 201 -70 263 -28 19 -98 53 -156 75 -262 103 -339 167 -376 312 -43 167
33 336 184 408 106 49 253 59 382 24z m943 -790 c109 -23 247 -108 247 -153 0
-22 -60 -82 -82 -82 -10 0 -41 16 -69 35 -147 101 -328 82 -442 -45 -77 -86
-82 -111 -82 -440 l0 -285 26 -56 c59 -125 159 -193 283 -194 125 0 223 61
278 173 30 61 33 76 37 179 l3 112 -148 3 -149 3 0 65 0 65 199 3 c262 3 246
15 246 -193 0 -166 -12 -235 -57 -317 -132 -243 -459 -317 -680 -154 -73 53
-114 104 -156 193 l-32 68 -3 315 c-4 358 1 396 68 498 113 174 304 252 513
207z m1202 -775 l0 -65 -107 -3 -108 -3 0 -524 0 -524 108 -3 107 -3 0 -65 0
-65 -295 0 -295 0 0 65 0 65 108 3 107 3 0 524 0 524 -107 3 -108 3 -3 54 c-2
29 -1 60 2 67 5 12 56 14 298 12 l293 -3 0 -65z"/>
</g>
</svg>
